<?xml version="1.0" encoding="utf-8"?>
<svg viewBox="0 0 500 185" xmlns="http://www.w3.org/2000/svg">
  <path d="M 450.809 42.41 C 442.662 42.41 436.032 35.864 436.032 27.798 C 436.032 19.733 442.662 13.185 450.809 13.185 C 458.949 13.185 465.582 19.733 465.582 27.798 C 465.582 35.864 458.949 42.41 450.809 42.41 Z M 467.359 44.563 C 474.466 44.563 480.197 50.236 480.197 57.261 L 480.197 102.216 C 480.197 106.449 476.723 109.882 472.453 109.882 L 470.835 109.882 L 470.835 68.36 C 470.835 67.482 470.091 66.841 469.295 66.841 C 468.501 66.841 467.758 67.561 467.758 68.36 L 467.758 157.629 C 467.758 161.225 464.785 164.419 461.072 164.419 C 459.214 164.419 457.599 163.7 456.377 162.502 C 455.157 161.306 454.44 159.626 454.44 157.871 L 454.44 95.987 L 447.413 95.987 L 447.413 157.711 C 447.413 161.306 444.441 164.497 440.805 164.497 C 438.95 164.497 437.252 163.781 436.113 162.582 C 434.918 161.383 434.174 159.704 434.174 157.951 L 434.174 68.36 C 434.174 67.482 433.458 66.841 432.636 66.841 C 431.839 66.841 431.124 67.561 431.124 68.36 L 431.124 109.961 L 429.504 109.961 C 425.207 109.961 421.733 106.529 421.733 102.297 L 421.733 57.261 C 421.733 50.315 427.488 44.563 434.572 44.563 L 467.359 44.563 Z M 385.1 44.563 C 392.209 44.563 397.939 50.236 397.939 57.261 L 397.939 102.216 C 397.939 106.449 394.466 109.882 390.196 109.882 L 388.576 109.882 L 388.576 68.36 C 388.576 67.482 387.832 66.844 387.036 66.844 C 386.216 66.844 385.498 67.561 385.498 68.36 L 385.498 157.629 C 385.498 161.225 382.502 164.419 378.786 164.419 C 376.931 164.419 375.337 163.7 374.117 162.502 C 372.898 161.306 372.182 159.626 372.182 157.871 L 372.182 95.987 L 365.151 95.987 L 365.151 157.711 C 365.151 161.306 362.183 164.497 358.548 164.497 C 356.69 164.497 354.993 163.781 353.852 162.582 C 352.632 161.383 351.916 159.707 351.916 157.951 L 351.916 68.36 C 351.916 67.482 351.2 66.844 350.377 66.844 C 349.582 66.844 348.837 67.561 348.837 68.36 L 348.837 109.961 L 347.222 109.961 C 342.95 109.961 339.477 106.529 339.477 102.297 L 339.477 57.261 C 339.477 50.315 345.205 44.563 352.314 44.563 L 385.1 44.563 Z M 353.693 27.719 C 353.693 19.65 360.299 13.105 368.47 13.105 C 376.614 13.105 383.243 19.65 383.243 27.719 C 383.243 35.788 376.614 42.329 368.47 42.329 C 360.299 42.329 353.693 35.788 353.693 27.719 Z M 271.435 27.719 C 271.435 19.65 278.038 13.105 286.211 13.105 C 294.352 13.105 300.986 19.65 300.986 27.719 C 300.986 35.788 294.352 42.329 286.211 42.329 C 278.038 42.329 271.435 35.788 271.435 27.719 Z M 302.762 44.563 C 309.846 44.563 315.574 50.236 315.574 57.261 L 315.574 102.216 C 315.574 106.449 312.127 109.882 307.829 109.882 L 306.21 109.882 L 306.21 68.36 C 306.21 67.482 305.494 66.844 304.701 66.844 C 303.876 66.844 303.16 67.561 303.16 68.36 L 303.16 157.629 C 303.16 161.225 300.163 164.419 296.451 164.419 C 294.592 164.419 292.975 163.7 291.782 162.502 C 290.562 161.306 289.844 159.626 289.844 157.871 L 289.844 95.987 L 282.817 95.987 L 282.817 157.711 C 282.817 161.306 279.819 164.497 276.184 164.497 C 274.326 164.497 272.63 163.781 271.517 162.582 C 270.296 161.383 269.581 159.707 269.581 157.951 L 269.581 68.36 C 269.581 67.482 268.836 66.844 268.04 66.844 C 267.218 66.844 266.502 67.561 266.502 68.36 L 266.502 109.961 L 264.883 109.961 C 260.614 109.961 257.137 106.529 257.137 102.297 L 257.137 57.261 C 257.137 50.315 262.867 44.563 269.975 44.563 L 302.762 44.563 Z M 220.479 44.563 C 227.587 44.563 233.318 50.236 233.318 57.261 L 233.318 102.216 C 233.318 106.449 229.841 109.882 225.571 109.882 L 223.952 109.882 L 223.952 68.36 C 223.952 67.482 223.236 66.841 222.414 66.841 C 221.619 66.841 220.903 67.561 220.903 68.36 L 220.903 157.629 C 220.903 161.225 217.906 164.419 214.193 164.419 C 212.335 164.419 210.716 163.7 209.497 162.502 C 208.302 161.306 207.56 159.626 207.56 157.871 L 207.56 95.987 L 200.558 95.987 L 200.558 157.711 C 200.558 161.306 197.559 164.497 193.926 164.497 C 192.069 164.497 190.372 163.781 189.258 162.582 C 188.039 161.383 187.319 159.704 187.319 157.951 L 187.319 68.36 C 187.319 67.482 186.579 66.841 185.781 66.841 C 184.96 66.841 184.244 67.561 184.244 68.36 L 184.244 109.961 L 182.625 109.961 C 178.353 109.961 174.881 106.529 174.881 102.297 L 174.881 57.261 C 174.881 50.315 180.609 44.563 187.718 44.563 L 220.479 44.563 Z M 203.845 42.41 C 195.703 42.41 189.097 35.864 189.097 27.798 C 189.097 19.733 195.703 13.185 203.845 13.185 C 212.018 13.185 218.621 19.733 218.621 27.798 C 218.621 35.864 212.018 42.41 203.845 42.41 Z M 121.588 42.41 C 113.445 42.41 106.814 35.864 106.814 27.798 C 106.814 19.733 113.445 13.185 121.588 13.185 C 129.759 13.185 136.364 19.733 136.364 27.798 C 136.364 35.864 129.759 42.41 121.588 42.41 Z M 138.141 44.563 C 145.249 44.563 150.978 50.236 150.978 57.261 L 150.978 102.216 C 150.978 106.449 147.505 109.882 143.233 109.882 L 141.617 109.882 L 141.617 68.36 C 141.617 67.482 140.898 66.841 140.077 66.841 C 139.279 66.841 138.538 67.561 138.538 68.36 L 138.538 157.629 C 138.538 161.225 135.566 164.419 131.854 164.419 C 129.996 164.419 128.378 163.7 127.158 162.502 C 125.966 161.306 125.222 159.626 125.222 157.871 L 125.222 95.987 L 118.192 95.987 L 118.192 157.711 C 118.192 161.306 115.223 164.497 111.587 164.497 C 109.729 164.497 108.033 163.781 106.891 162.582 C 105.699 161.383 104.956 159.704 104.956 157.951 L 104.956 68.36 C 104.956 67.482 104.24 66.841 103.443 66.841 C 102.622 66.841 101.906 67.561 101.906 68.36 L 101.906 109.961 L 100.288 109.961 C 96.018 109.961 92.541 106.529 92.541 102.297 L 92.541 57.261 C 92.541 50.315 98.271 44.563 105.381 44.563 L 138.141 44.563 Z M 55.882 44.563 C 62.991 44.563 68.721 50.236 68.721 57.261 L 68.721 102.216 C 68.721 106.449 65.248 109.882 60.975 109.882 L 59.356 109.882 L 59.356 68.36 C 59.356 67.482 58.615 66.844 57.819 66.844 C 57.022 66.844 56.282 67.561 56.282 68.36 L 56.282 157.629 C 56.282 161.225 53.309 164.419 49.597 164.419 C 47.738 164.419 46.121 163.7 44.901 162.502 C 43.68 161.306 42.964 159.626 42.964 157.871 L 42.964 95.987 L 35.935 95.987 L 35.935 157.711 C 35.935 161.306 32.966 164.497 29.33 164.497 C 27.472 164.497 25.776 163.781 24.635 162.582 C 23.442 161.383 22.699 159.707 22.699 157.951 L 22.699 68.36 C 22.699 67.482 21.983 66.844 21.161 66.844 C 20.364 66.844 19.621 67.561 19.621 68.36 L 19.621 109.961 L 18.029 109.961 C 13.731 109.961 10.258 106.529 10.258 102.297 L 10.258 57.261 C 10.258 50.315 16.013 44.563 23.096 44.563 L 55.882 44.563 Z M 24.475 27.719 C 24.475 19.65 31.079 13.105 39.251 13.105 C 47.421 13.105 54.024 19.65 54.024 27.719 C 54.024 35.788 47.421 42.329 39.251 42.329 C 31.079 42.329 24.475 35.788 24.475 27.719 Z M -1.788 186.055 L 502.017 186.055 L 502.017 -0.353 L -1.788 -0.353 L -1.788 186.055 Z" style="fill: rgb(255, 255, 255);"/>
</svg>