<?xml version="1.0" encoding="utf-8"?>
<svg viewBox="0 0 500 185" xmlns="http://www.w3.org/2000/svg">
  <path d="M 449.126 42.729 C 441.042 42.729 434.461 36.233 434.461 28.227 C 434.461 20.224 441.042 13.725 449.126 13.725 C 457.205 13.725 463.788 20.224 463.788 28.227 C 463.788 36.233 457.205 42.729 449.126 42.729 Z M 465.551 44.867 C 472.605 44.867 478.292 50.496 478.292 57.468 L 478.292 102.084 C 478.292 106.284 474.845 109.692 470.607 109.692 L 469.001 109.692 L 469.001 68.484 C 469.001 67.612 468.263 66.976 467.473 66.976 C 466.684 66.976 465.947 67.69 465.947 68.484 L 465.947 157.078 C 465.947 160.647 462.997 163.817 459.312 163.817 C 457.468 163.817 455.865 163.103 454.652 161.914 C 453.441 160.727 452.73 159.06 452.73 157.318 L 452.73 95.901 L 445.756 95.901 L 445.756 157.16 C 445.756 160.727 442.806 163.894 439.198 163.894 C 437.357 163.894 435.672 163.184 434.541 161.994 C 433.355 160.804 432.617 159.138 432.617 157.398 L 432.617 68.484 C 432.617 67.612 431.906 66.976 431.091 66.976 C 430.3 66.976 429.59 67.69 429.59 68.484 L 429.59 109.77 L 427.983 109.77 C 423.718 109.77 420.271 106.364 420.271 102.164 L 420.271 57.468 C 420.271 50.575 425.982 44.867 433.012 44.867 L 465.551 44.867 Z M 383.914 44.867 C 390.969 44.867 396.656 50.496 396.656 57.468 L 396.656 102.084 C 396.656 106.284 393.209 109.692 388.971 109.692 L 387.364 109.692 L 387.364 68.484 C 387.364 67.612 386.626 66.979 385.835 66.979 C 385.021 66.979 384.309 67.69 384.309 68.484 L 384.309 157.078 C 384.309 160.647 381.336 163.817 377.648 163.817 C 375.807 163.817 374.225 163.103 373.014 161.914 C 371.804 160.727 371.093 159.06 371.093 157.318 L 371.093 95.901 L 364.116 95.901 L 364.116 157.16 C 364.116 160.727 361.17 163.894 357.562 163.894 C 355.719 163.894 354.035 163.184 352.902 161.994 C 351.691 160.804 350.98 159.141 350.98 157.398 L 350.98 68.484 C 350.98 67.612 350.27 66.979 349.454 66.979 C 348.664 66.979 347.925 67.69 347.925 68.484 L 347.925 109.77 L 346.322 109.77 C 342.082 109.77 338.635 106.364 338.635 102.164 L 338.635 57.468 C 338.635 50.575 344.32 44.867 351.376 44.867 L 383.914 44.867 Z M 352.744 28.15 C 352.744 20.141 359.3 13.646 367.409 13.646 C 375.492 13.646 382.071 20.141 382.071 28.15 C 382.071 36.158 375.492 42.649 367.409 42.649 C 359.3 42.649 352.744 36.158 352.744 28.15 Z M 271.108 28.15 C 271.108 20.141 277.661 13.646 285.772 13.646 C 293.852 13.646 300.435 20.141 300.435 28.15 C 300.435 36.158 293.852 42.649 285.772 42.649 C 277.661 42.649 271.108 36.158 271.108 28.15 Z M 302.198 44.867 C 309.228 44.867 314.914 50.496 314.914 57.468 L 314.914 102.084 C 314.914 106.284 311.492 109.692 307.226 109.692 L 305.62 109.692 L 305.62 68.484 C 305.62 67.612 304.909 66.979 304.122 66.979 C 303.304 66.979 302.593 67.69 302.593 68.484 L 302.593 157.078 C 302.593 160.647 299.619 163.817 295.934 163.817 C 294.09 163.817 292.484 163.103 291.301 161.914 C 290.09 160.727 289.377 159.06 289.377 157.318 L 289.377 95.901 L 282.403 95.901 L 282.403 157.16 C 282.403 160.727 279.428 163.894 275.82 163.894 C 273.977 163.894 272.294 163.184 271.188 161.994 C 269.977 160.804 269.267 159.141 269.267 157.398 L 269.267 68.484 C 269.267 67.612 268.528 66.979 267.738 66.979 C 266.922 66.979 266.212 67.69 266.212 68.484 L 266.212 109.77 L 264.605 109.77 C 260.368 109.77 256.918 106.364 256.918 102.164 L 256.918 57.468 C 256.918 50.575 262.604 44.867 269.659 44.867 L 302.198 44.867 Z M 220.536 44.867 C 227.591 44.867 233.278 50.496 233.278 57.468 L 233.278 102.084 C 233.278 106.284 229.828 109.692 225.59 109.692 L 223.983 109.692 L 223.983 68.484 C 223.983 67.612 223.273 66.976 222.457 66.976 C 221.667 66.976 220.957 67.69 220.957 68.484 L 220.957 157.078 C 220.957 160.647 217.983 163.817 214.298 163.817 C 212.454 163.817 210.847 163.103 209.637 161.914 C 208.451 160.727 207.715 159.06 207.715 157.318 L 207.715 95.901 L 200.766 95.901 L 200.766 157.16 C 200.766 160.727 197.789 163.894 194.184 163.894 C 192.341 163.894 190.657 163.184 189.551 161.994 C 188.341 160.804 187.627 159.138 187.627 157.398 L 187.627 68.484 C 187.627 67.612 186.892 66.976 186.101 66.976 C 185.286 66.976 184.575 67.69 184.575 68.484 L 184.575 109.77 L 182.969 109.77 C 178.728 109.77 175.282 106.364 175.282 102.164 L 175.282 57.468 C 175.282 50.575 180.968 44.867 188.023 44.867 L 220.536 44.867 Z M 204.028 42.729 C 195.948 42.729 189.391 36.233 189.391 28.227 C 189.391 20.224 195.948 13.725 204.028 13.725 C 212.139 13.725 218.693 20.224 218.693 28.227 C 218.693 36.233 212.139 42.729 204.028 42.729 Z M 122.392 42.729 C 114.311 42.729 107.73 36.233 107.73 28.227 C 107.73 20.224 114.311 13.725 122.392 13.725 C 130.502 13.725 137.057 20.224 137.057 28.227 C 137.057 36.233 130.502 42.729 122.392 42.729 Z M 138.82 44.867 C 145.875 44.867 151.561 50.496 151.561 57.468 L 151.561 102.084 C 151.561 106.284 148.114 109.692 143.873 109.692 L 142.27 109.692 L 142.27 68.484 C 142.27 67.612 141.557 66.976 140.741 66.976 C 139.95 66.976 139.215 67.69 139.215 68.484 L 139.215 157.078 C 139.215 160.647 136.265 163.817 132.581 163.817 C 130.737 163.817 129.131 163.103 127.92 161.914 C 126.737 160.727 125.999 159.06 125.999 157.318 L 125.999 95.901 L 119.022 95.901 L 119.022 157.16 C 119.022 160.727 116.075 163.894 112.467 163.894 C 110.623 163.894 108.94 163.184 107.807 161.994 C 106.624 160.804 105.886 159.138 105.886 157.398 L 105.886 68.484 C 105.886 67.612 105.176 66.976 104.385 66.976 C 103.569 66.976 102.859 67.69 102.859 68.484 L 102.859 109.77 L 101.253 109.77 C 97.015 109.77 93.565 106.364 93.565 102.164 L 93.565 57.468 C 93.565 50.575 99.251 44.867 106.308 44.867 L 138.82 44.867 Z M 57.183 44.867 C 64.238 44.867 69.924 50.496 69.924 57.468 L 69.924 102.084 C 69.924 106.284 66.478 109.692 62.237 109.692 L 60.631 109.692 L 60.631 68.484 C 60.631 67.612 59.895 66.979 59.105 66.979 C 58.314 66.979 57.579 67.69 57.579 68.484 L 57.579 157.078 C 57.579 160.647 54.629 163.817 50.945 163.817 C 49.101 163.817 47.495 163.103 46.284 161.914 C 45.073 160.727 44.362 159.06 44.362 157.318 L 44.362 95.901 L 37.386 95.901 L 37.386 157.16 C 37.386 160.727 34.439 163.894 30.831 163.894 C 28.987 163.894 27.304 163.184 26.171 161.994 C 24.987 160.804 24.25 159.141 24.25 157.398 L 24.25 68.484 C 24.25 67.612 23.539 66.979 22.724 66.979 C 21.933 66.979 21.195 67.69 21.195 68.484 L 21.195 109.77 L 19.616 109.77 C 15.35 109.77 11.904 106.364 11.904 102.164 L 11.904 57.468 C 11.904 50.575 17.615 44.867 24.645 44.867 L 57.183 44.867 Z M 26.013 28.15 C 26.013 20.141 32.567 13.646 40.677 13.646 C 48.786 13.646 55.339 20.141 55.339 28.15 C 55.339 36.158 48.786 42.649 40.677 42.649 C 32.567 42.649 26.013 36.158 26.013 28.15 Z M -0.052 185.289 L 499.948 185.289 L 499.948 0.289 L -0.052 0.289 L -0.052 185.289 Z" style="fill: rgb(255, 255, 255);"/>
</svg>